<svg width="358" height="69" viewBox="0 0 358 69" fill="none" xmlns="http://www.w3.org/2000/svg">
<path d="M117.361 16.8467H124.919V39.1933C124.919 41.7024 124.297 43.8979 123.052 45.7797C121.818 47.6615 120.09 49.1289 117.867 50.1818C115.644 51.2235 113.055 51.7444 110.099 51.7444C107.131 51.7444 104.536 51.2235 102.313 50.1818C100.09 49.1289 98.3621 47.6615 97.1285 45.7797C95.8949 43.8979 95.2781 41.7024 95.2781 39.1933V16.8467H102.837V38.5717C102.837 39.8822 103.134 41.0471 103.727 42.0665C104.332 43.0858 105.182 43.8867 106.276 44.4691C107.37 45.0516 108.644 45.3428 110.099 45.3428C111.565 45.3428 112.839 45.0516 113.922 44.4691C115.016 43.8867 115.859 43.0858 116.453 42.0665C117.058 41.0471 117.361 39.8822 117.361 38.5717V16.8467Z" fill="white"/>
<path d="M138.435 36.337V51.2571H130.999V25.4493H138.086V30.0027H138.4C138.994 28.5017 139.989 27.3144 141.385 26.4407C142.782 25.5558 144.475 25.1133 146.465 25.1133C148.327 25.1133 149.951 25.5053 151.336 26.2894C152.721 27.0735 153.797 28.1937 154.565 29.6498C155.333 31.0948 155.717 32.8198 155.717 34.8248V51.2571H148.281V36.1018C148.292 34.5224 147.873 33.2902 147.024 32.4053C146.174 31.5092 145.005 31.0612 143.515 31.0612C142.514 31.0612 141.63 31.2684 140.862 31.6829C140.105 32.0973 139.512 32.7022 139.081 33.4975C138.662 34.2816 138.447 35.2281 138.435 36.337Z" fill="white"/>
<path d="M171.459 51.6772C169.422 51.6772 167.578 51.1731 165.925 50.165C164.284 49.1457 162.981 47.6503 162.015 45.6789C161.06 43.6963 160.583 41.2656 160.583 38.3868C160.583 35.4297 161.078 32.971 162.067 31.0108C163.056 29.0394 164.371 27.5664 166.012 26.5919C167.665 25.6062 169.475 25.1133 171.441 25.1133C172.943 25.1133 174.194 25.3597 175.194 25.8526C176.207 26.3342 177.022 26.9391 177.638 27.6672C178.267 28.3841 178.744 29.0898 179.07 29.7842H179.297V16.8467H186.716V51.2571H179.384V47.1239H179.07C178.721 47.8407 178.226 48.552 177.586 49.2577C176.958 49.9522 176.137 50.529 175.125 50.9883C174.124 51.4476 172.902 51.6772 171.459 51.6772ZM173.815 45.9813C175.014 45.9813 176.027 45.6677 176.853 45.0404C177.691 44.4019 178.331 43.5114 178.773 42.3689C179.227 41.2264 179.454 39.8878 179.454 38.3532C179.454 36.8187 179.233 35.4857 178.791 34.3544C178.348 33.223 177.708 32.3493 176.87 31.7333C176.032 31.1172 175.014 30.8092 173.815 30.8092C172.593 30.8092 171.563 31.1284 170.726 31.7669C169.888 32.4053 169.253 33.2902 168.823 34.4216C168.392 35.5529 168.177 36.8635 168.177 38.3532C168.177 39.8542 168.392 41.1816 168.823 42.3353C169.265 43.4778 169.899 44.3739 170.726 45.0236C171.563 45.6621 172.593 45.9813 173.815 45.9813Z" fill="white"/>
<path d="M205.05 51.7612C202.291 51.7612 199.917 51.2235 197.927 50.1482C195.949 49.0617 194.424 47.5271 193.354 45.5445C192.283 43.5506 191.748 41.1928 191.748 38.4708C191.748 35.8161 192.283 33.4863 193.354 31.4812C194.424 29.4762 195.931 27.9136 197.875 26.7935C199.83 25.6734 202.123 25.1133 204.753 25.1133C206.522 25.1133 208.169 25.3877 209.693 25.9366C211.229 26.4743 212.568 27.2864 213.708 28.3729C214.86 29.4594 215.756 30.826 216.396 32.4726C217.036 34.1079 217.357 36.0234 217.357 38.2188V40.1846H194.715V35.7489H210.356C210.356 34.7184 210.124 33.8055 209.658 33.0102C209.193 32.2149 208.547 31.5932 207.72 31.1452C206.906 30.6859 205.957 30.4563 204.875 30.4563C203.746 30.4563 202.745 30.7083 201.873 31.2124C201.011 31.7053 200.336 32.3717 199.848 33.2118C199.359 34.0407 199.109 34.9648 199.097 35.9842V40.2014C199.097 41.4784 199.341 42.5817 199.83 43.5114C200.331 44.4411 201.035 45.158 201.942 45.6621C202.85 46.1661 203.927 46.4182 205.172 46.4182C205.998 46.4182 206.755 46.3062 207.441 46.0821C208.128 45.8581 208.716 45.5221 209.204 45.074C209.693 44.626 210.065 44.0771 210.322 43.4274L217.199 43.8643C216.85 45.4549 216.135 46.8438 215.052 48.0312C213.982 49.2073 212.597 50.1258 210.898 50.7867C209.21 51.4364 207.261 51.7612 205.05 51.7612Z" fill="white"/>
<path d="M222.209 51.2571V25.4493H229.419V29.9523H229.698C230.187 28.3505 231.008 27.1407 232.16 26.323C233.312 25.4941 234.639 25.0797 236.14 25.0797C236.512 25.0797 236.914 25.1021 237.344 25.1469C237.775 25.1917 238.153 25.2533 238.479 25.3317V31.6829C238.13 31.582 237.647 31.4924 237.03 31.414C236.413 31.3356 235.849 31.2964 235.337 31.2964C234.243 31.2964 233.265 31.526 232.404 31.9853C231.555 32.4333 230.88 33.0606 230.379 33.8671C229.89 34.6736 229.646 35.6033 229.646 36.6562V51.2571H222.209Z" fill="white"/>
<path d="M249.202 51.7444C247.491 51.7444 245.966 51.4588 244.628 50.8875C243.29 50.305 242.231 49.4481 241.451 48.3168C240.683 47.1743 240.299 45.7517 240.299 44.0491C240.299 42.6153 240.572 41.4112 241.119 40.4367C241.666 39.4622 242.411 38.6781 243.354 38.0844C244.296 37.4907 245.367 37.0427 246.566 36.7402C247.776 36.4378 249.045 36.225 250.371 36.1018C251.931 35.945 253.188 35.7993 254.142 35.6649C255.096 35.5193 255.789 35.3065 256.219 35.0264C256.65 34.7464 256.865 34.332 256.865 33.7831V33.6823C256.865 32.6182 256.516 31.7949 255.818 31.2124C255.131 30.6299 254.154 30.3387 252.885 30.3387C251.547 30.3387 250.482 30.6243 249.691 31.1956C248.899 31.7557 248.375 32.4614 248.119 33.3127L241.242 32.775C241.591 31.2068 242.277 29.8514 243.301 28.7089C244.326 27.5552 245.646 26.6703 247.264 26.0542C248.893 25.4269 250.779 25.1133 252.92 25.1133C254.41 25.1133 255.835 25.2813 257.197 25.6174C258.57 25.9534 259.786 26.4743 260.845 27.1799C261.916 27.8856 262.76 28.7929 263.376 29.9019C263.993 30.9996 264.302 32.3157 264.302 33.8503V51.2571H257.249V47.6783H257.04C256.609 48.4848 256.033 49.1961 255.312 49.8122C254.59 50.417 253.723 50.8931 252.71 51.2403C251.698 51.5764 250.528 51.7444 249.202 51.7444ZM251.331 46.8046C252.425 46.8046 253.391 46.5974 254.229 46.1829C255.067 45.7573 255.725 45.186 256.202 44.4691C256.679 43.7523 256.918 42.9402 256.918 42.0329V39.2941C256.685 39.4398 256.365 39.5742 255.957 39.6974C255.562 39.8094 255.114 39.9158 254.613 40.0166C254.113 40.1062 253.612 40.1902 253.112 40.2687C252.612 40.3359 252.158 40.3975 251.75 40.4535C250.878 40.5767 250.115 40.7727 249.464 41.0415C248.812 41.3104 248.306 41.6744 247.945 42.1337C247.584 42.5817 247.404 43.1418 247.404 43.8139C247.404 44.7884 247.77 45.5333 248.503 46.0485C249.248 46.5526 250.191 46.8046 251.331 46.8046Z" fill="white"/>
<path d="M284.333 25.4493V30.826H268.186V25.4493H284.333ZM271.852 19.2662H279.288V43.3266C279.288 43.9875 279.393 44.5027 279.602 44.8724C279.812 45.2308 280.103 45.4829 280.475 45.6285C280.859 45.7741 281.302 45.8469 281.802 45.8469C282.151 45.8469 282.5 45.8189 282.849 45.7629C283.198 45.6957 283.466 45.6453 283.652 45.6117L284.822 50.9379C284.45 51.0499 283.926 51.1787 283.251 51.3243C282.576 51.4812 281.755 51.5764 280.789 51.61C278.997 51.6772 277.426 51.4476 276.076 50.9211C274.738 50.3946 273.696 49.5769 272.951 48.468C272.207 47.3591 271.84 45.9589 271.852 44.2675V19.2662Z" fill="white"/>
<path d="M301.004 51.7612C298.293 51.7612 295.948 51.2067 293.969 50.0978C292.002 48.9777 290.484 47.4207 289.413 45.4269C288.342 43.4218 287.807 41.0976 287.807 38.454C287.807 35.7881 288.342 33.4583 289.413 31.4644C290.484 29.4594 292.002 27.9024 293.969 26.7935C295.948 25.6734 298.293 25.1133 301.004 25.1133C303.716 25.1133 306.055 25.6734 308.022 26.7935C310 27.9024 311.525 29.4594 312.595 31.4644C313.666 33.4583 314.201 35.7881 314.201 38.454C314.201 41.0976 313.666 43.4218 312.595 45.4269C311.525 47.4207 310 48.9777 308.022 50.0978C306.055 51.2067 303.716 51.7612 301.004 51.7612ZM301.039 46.2165C302.273 46.2165 303.303 45.8805 304.129 45.2084C304.955 44.5252 305.578 43.5954 305.997 42.4193C306.427 41.2432 306.643 39.9046 306.643 38.4036C306.643 36.9027 306.427 35.5641 305.997 34.388C305.578 33.2118 304.955 32.2821 304.129 31.5989C303.303 30.9156 302.273 30.5739 301.039 30.5739C299.794 30.5739 298.746 30.9156 297.897 31.5989C297.059 32.2821 296.425 33.2118 295.994 34.388C295.575 35.5641 295.366 36.9027 295.366 38.4036C295.366 39.9046 295.575 41.2432 295.994 42.4193C296.425 43.5954 297.059 44.5252 297.897 45.2084C298.746 45.8805 299.794 46.2165 301.039 46.2165Z" fill="white"/>
<path d="M319.037 51.2571V25.4493H326.124V30.0027H326.438C326.997 28.4905 327.928 27.2976 329.232 26.4239C330.535 25.5501 332.094 25.1133 333.91 25.1133C335.749 25.1133 337.314 25.5558 338.606 26.4407C339.898 27.3144 340.759 28.5017 341.189 30.0027H341.469C342.016 28.5241 343.005 27.3424 344.436 26.4575C345.879 25.5614 347.584 25.1133 349.551 25.1133C352.053 25.1133 354.084 25.8806 355.643 27.4152C357.214 28.9385 358 31.1004 358 33.9007V51.2571H350.581V35.3121C350.581 33.8783 350.185 32.803 349.394 32.0861C348.603 31.3692 347.613 31.0108 346.426 31.0108C345.076 31.0108 344.023 31.4252 343.267 32.2541C342.51 33.0718 342.132 34.1527 342.132 35.4969V51.2571H334.922V35.1609C334.922 33.8951 334.544 32.887 333.788 32.1365C333.043 31.386 332.059 31.0108 330.838 31.0108C330.011 31.0108 329.266 31.2124 328.603 31.6157C327.951 32.0077 327.434 32.5622 327.049 33.279C326.665 33.9847 326.473 34.8136 326.473 35.7657V51.2571H319.037Z" fill="white"/>
<path fill-rule="evenodd" clip-rule="evenodd" d="M35.8442 1.58835e-07C55.6404 2.46557e-07 71.6884 15.4462 71.6884 34.5C71.6884 53.5538 55.6404 69 35.8442 69C16.048 69 9.38871e-08 53.5538 2.09703e-07 34.5C3.25518e-07 15.4462 16.048 7.11128e-08 35.8442 1.58835e-07ZM55.5585 34.5C55.5585 24.0204 46.7321 15.525 35.8442 15.525C24.9563 15.525 16.1299 24.0204 16.1299 34.5C16.1299 44.9796 24.9563 53.475 35.8442 53.475C46.7321 53.475 55.5585 44.9796 55.5585 34.5Z" fill="url(#paint0_radial_3692_612)"/>
<path d="M35.8441 22.4251C34.1966 22.4251 32.5653 22.7374 31.0432 23.3443C29.5211 23.9511 28.1381 24.8405 26.9731 25.9618C25.8082 27.0831 24.8841 28.4142 24.2536 29.8792C23.6231 31.3442 23.2986 32.9144 23.2986 34.5001C23.2986 36.0858 23.6231 37.656 24.2536 39.121C24.8841 40.586 25.8082 41.9172 26.9731 43.0384C28.1381 44.1597 29.5211 45.0491 31.0432 45.6559C32.5653 46.2628 34.1966 46.5751 35.8441 46.5751L35.8441 34.5001L35.8441 22.4251Z" fill="white"/>
<defs>
<radialGradient id="paint0_radial_3692_612" cx="0" cy="0" r="1" gradientUnits="userSpaceOnUse" gradientTransform="translate(71.6833 -8.37572) rotate(130.185) scale(81.7044 57.004)">
<stop offset="0.414608" stop-color="#F00692"/>
<stop offset="0.425207"/>
<stop offset="0.733035" stop-color="#00FFDA"/>
<stop offset="0.748542" stop-color="white"/>
</radialGradient>
</defs>
</svg>
